<?xml version="1.0" encoding="utf-8"?>
<!-- Generator: Adobe Illustrator 26.3.1, SVG Export Plug-In . SVG Version: 6.00 Build 0)  -->
<svg version="1.1" id="Layer_1" xmlns="http://www.w3.org/2000/svg" xmlns:xlink="http://www.w3.org/1999/xlink" x="0px" y="0px"
	 viewBox="0 0 1080 1080" style="enable-background:new 0 0 1080 1080;" xml:space="preserve">
<style type="text/css">
	.st0{enable-background:new    ;}
</style>
<g>
	<path d="M739.9,578.4c0-25.9,0-100.2,0-124.7c0-14.4,0.2-28.7-0.2-43c-0.1-2.5-1.4-6.2-3.4-7.4c-30.5-18.6-61.2-37-93.2-56.3
		c0,60.7,0,120,0,180.3c-13.9-3.6-26.5-6.7-39-10.3c-1.8-0.6-3.8-4.3-3.8-6.6c-0.2-43.9-0.2-87.9-0.2-131.8
		c-0.1-41.6-0.2-83.1-0.2-124.7c0-32,0.2-64,0.2-95.9c0-2.2-1.3-5.3-3.1-6.5c-5-3.6-10.5-6.5-17.4-10.6c0,125.7,0,249.4,0,373.8
		c-12.9-0.6-25.4-0.8-37.7-2.1c-1.7-0.2-4.2-5-4.2-7.7c-0.3-26.9-0.3-53.8-0.3-80.7c0-36.5,0.2-72.9,0.2-109.4
		c0.1-47.6,0-95.1,0-142.6c0-30.8-0.2-61.6-0.3-92.4c0-2.9,0-5.8,0-10.3c4.2,2.1,7.1,3.3,9.8,4.9c48.5,28.4,96.8,56.9,145.5,85.1
		c7.4,4.3,9.9,9.1,9.9,17.7c-0.5,44.3-0.2,88.5-0.2,132.7c0,1.4-0.2,2.9-0.4,6.4c-14-8.5-26.9-16.2-39.5-24.4
		c-1.8-1.1-2.3-5.2-2.3-7.9c-0.2-26.6-0.8-53.2,0.2-79.8c0.5-12.9-4-20.1-17.3-23.8c0,15.7,0,31.1,0,46.5c0,21.5,0.2,43-0.2,64.6
		c-0.2,7.1,2,11.2,8.3,14.8c41.2,23.6,82.2,47.6,123.4,71.3c5.6,3.2,7.9,6.7,7.9,13.3c-0.2,38.9-0.1,212.2,0.4,251.1"/>
	<path d="M274.4,648.9c0-5.8,0-11.7,0-17.6c0.2-92.4,1.1-184.8-0.2-277.1c-0.2-20.4,5.7-31.3,23.2-41.1c31-17.2,60.5-37.2,90.4-56.6
		c3-1.9,5.2-7.1,5.3-10.8c0.2-30.5,0.2-61-0.3-91.5c-0.2-7.4,1.9-11.7,8.5-15.7c36.4-21.2,72.4-43,108.6-64.6c2.5-1.5,5-2.7,8.5-4.6
		c0,148.3,0,295.5,0,443.7c-14,0-27.3,0-41.2,0c0-64.6,0-129.3,0-196.6c-14.6,9.7-27.7,18.1-40.4,27.1c-1.6,1.1-1.3,5.5-1.3,8.4
		c-0.1,51.7-0.2,103.4,0.2,155.2c0,7.1-1.2,10.6-9.2,11.8c-10.8,1.6-21.4,5.3-33.4,8.5c0-3.9,0-7.1,0-10.3
		c0.1-61.9,0.3-123.8,0.2-185.6c0-7.6,2.5-11.8,8.8-15.7c23.9-14.7,47.6-29.7,71.2-44.9c2.1-1.3,4.3-4.5,4.3-6.8
		c0-39.8-0.4-79.5-0.7-119.3c0-0.5-0.5-1-1.2-2.3c-12.5,7.6-25,14.9-37.2,22.8c-1.6,1-2.4,4.1-2.4,6.2c-0.2,17-0.1,34.1-0.1,53.1
		c8.6-5.5,16.3-10.4,25.5-16.3c0,17,0.2,32.6-0.2,48.2c-0.1,1.8-3.3,3.9-5.4,5.3c-44.1,28.1-88.2,56.2-132.5,83.9
		c-5,3.1-6.7,6.5-6.7,12.2c0.2,70.6-0.1,141.1,0.2,211.7c0,8.5-2.3,15.1-7,22.2C297.5,610.1,286.4,629.3,274.4,648.9z"/>
	<path d="M333.6,560.6c0-16.5,0-31.5,0-46.3c0-49.3-0.2-98.5,0.2-147.8c0-3.7,2.5-8.7,5.4-10.7c11.4-8,23.5-14.9,37-23.2
		c0,20,0,38.4,0,56.7c0,47.1,0.2,94.3-0.1,141.4c0,2.6-2.1,6.3-4.4,7.6C359.9,545.7,347.6,552.5,333.6,560.6z"/>
	<path d="M702.3,548.4c-2,0-30.8,5.2-41.4-17.2c-1.5-3-1.3-7-1.3-10.5c-0.1-50.2-0.1-82.4-0.1-132.6c0-2.9,0.2-5.7,0.4-10.7
		c14.2,8.4,27.3,15.9,40.1,23.9c1.6,1,2.1,4.7,2.1,7.1c0.2,40.9,0.1,81.8,0.2,122.8"/>
</g>
<g id="fVx6Ys.tif">
	<g>
		<path d="M493.3,677.9c0,20.4,0,39.2,0,59c36.7,0,72.7,0,109.9,0c0,9.9,0.4,19.1-0.3,28.1c-0.2,1.6-5.1,4-7.8,4.1
			c-24.5,0.3-49,0.2-73.4,0.2c-18.2,0-36.5-0.5-54.6,0.2c-9,0.3-11.9-2.5-12.1-11.4c-1-46.1-2.5-92.2-3.9-138.2
			c-0.7-23.2-1.5-46.3-2.5-69.5c-0.2-5.9,1.1-8.8,7.7-10.1c44.6-8.9,88.9-8.5,133,3.4c6,1.6,8.5,4.4,8.2,10.4
			c-0.3,8.9-0.1,17.7-0.1,27.8c-36-12-72.3-18-108.9-11c0,22.5,0,44.1,0,65.8c0,6.3,4.5,5.9,8.8,5.9c30.1,0,60.3,0,90.4,0
			c13.6,0,13.6,0,13.6,13.5c0,21.8,0,21.8-22.2,21.8c-25.4,0-50.8,0-76.1,0C500,677.9,497.1,677.9,493.3,677.9z"/>
		<path d="M320.8,769.8c-11.6,0-21.4-0.2-31.1,0.1c-5.8,0.1-5.7-3.7-5.9-7.7c-3-49.4,9.2-93.8,40.1-133.3
			c29-37.1,64.9-64.2,108.7-81.5c0.8-0.3,1.7-0.2,3.9-0.6c0.5,2.8,1.2,5.4,1.3,8.1c2.3,68.9,4.4,137.8,6.8,206.8
			c0.2,5.7-1.4,8.2-7.4,8c-8-0.3-16.1-0.4-24.1,0c-6.2,0.3-7.7-2.6-7.6-8c0.2-6.8-0.2-13.7,0.1-20.5c0.3-5.9-2.2-7.7-7.9-7.7
			c-23,0.2-46,0.2-68.9,0c-6.5-0.1-8.3,2.5-8,8.5C321,750.7,320.8,759.6,320.8,769.8z M331,696c19.2,0,36.4,0,53.6,0
			c19.4,0,19.6,0,19-19.1c-0.8-23.2-2.1-46.6-3.3-71.7C367,628.3,347.2,659.2,331,696z"/>
		<path d="M648.7,605.6c0,15.8-0.5,31.1,0.1,46.4c1.2,33.5,3.1,67.1,4.6,100.6c0.6,13.5-2.4,16.3-15.9,16.4
			c-22.1,0.2-22.2,0.2-22.8-21.5c-1.7-62.4-3.4-124.8-5.1-187.2c-0.1-3.1,0-6.3,0-10.4c22.2,6.3,40.7,16.8,58.2,29.2
			c10.9,7.6,21,15.7,23.2,30c0.9,5.6,4.4,8.1,10.2,7.3c6.7-1,11.1,2.2,15.1,7.3c27.8,35.3,49,73.7,55.7,118.8
			c1,6.4,0.9,13.1,1.6,19.5c0.6,5.7-2.2,6.9-7.4,7c-18,0.3-20.5-0.8-23.2-18.1c-4.6-29.1-12.7-56.8-30.1-81.1
			c-1.4-1.9-2.9-3.8-4.4-5.6c-0.5-0.6-1.4-0.8-2.6-1.6c0,10.7-0.1,20.9,0,31.1c0.1,6.8,0.2,13.7,0.9,20.5c0.9,8.5-3.8,11-11,11.5
			c-10.3,0.7-15.9-2.5-16.2-10.6c-0.8-22.3-3.3-44.8-1.4-66.8c2-23.2-11.7-33.4-28.3-43.1C649.8,605.4,649.5,605.5,648.7,605.6z"/>
	</g>
</g>
<g class="st0">
	<path d="M260,896.9c-7-1.2-12.2-3.4-15.5-6.7c-3.3-3.3-4.9-7.6-4.9-12.8c0-5,1-9.7,2.9-14.3c1.9-4.5,4.4-8.8,7.4-12.7
		c3-4,6.3-7.6,10-11c3.7-3.4,7.3-6.4,11-9.2c10.2-7,21.2-12.3,32.8-15.7c11.6-3.4,23.5-5.2,35.5-5.2c4.5,0,9.3,0.5,14.2,1.4
		c4.9,1,9.4,2.5,13.5,4.6c4.1,2.1,7.5,4.8,10.1,8.1c2.6,3.3,4,7.3,4,12c0,3.5-0.5,6.7-1.5,9.7c-2.9,7.6-7.1,14.6-12.6,21.1
		c-5.5,6.4-11.8,12-18.8,16.8c-7,4.8-14.6,8.6-22.7,11.4c-8.1,2.9-16.2,4.6-24.3,5.2c3.1,4.5,6.4,9.2,10,13.8
		c3.6,4.7,7.2,8.9,11,12.7c3.7,3.8,7.5,6.9,11.4,9.3c3.9,2.4,7.7,3.6,11.5,3.6c0.7,0,2.5,0,5.2,0c2.7,0,6.1-0.7,10.2-2.2
		c0.1,1.5,0.3,2.6,0.3,3.5c0.1,0.9,0.1,2,0.1,3.5c-3.5,1.6-7.2,2.8-11.2,3.6c-4,0.8-7,1.2-9.2,1.2c-4.4,0-8.5-0.9-12.3-2.7
		c-3.8-1.8-7.4-4.1-10.7-6.9c-3.3-2.8-6.3-5.9-9-9.2c-2.7-3.4-5.2-6.6-7.6-9.7l-2.2-3.7c-1-1.3-2-2.8-3-4.4c-1-1.6-1.9-3.1-3-4.4
		l-2.2-3.1c-0.9,1.8-1.7,3.5-2.5,5.3c-0.8,1.8-1.6,3.5-2.3,5.3v-0.2l-1.1,2.9l-4.4,10.1l-10.5,22.8c-2.6-1.6-4.5-3.3-5.6-4.9
		c-1.1-1.7-1.6-3.3-1.6-4.9c0-2.3,0.3-4.3,0.9-5.9l11-25.3l0.7-1.5c0.7-1.8,1.6-3.7,2.7-5.9s2-4.1,2.7-5.7c-0.1-0.3-0.2-0.7-0.2-1.1
		c-0.1,0-0.2-0.1-0.2-0.2v-0.4c-0.3-0.9-0.6-2-0.9-3.3c-0.3-1.3-1-3.4-2.2-6.4l10.1,0.9l10.5-16.9l24.8-42.4l5.7,4.8h-0.2l4,3.3
		l-33.4,54.7l5.1-1.1h-0.2c2.8-0.4,5.5-0.9,8.2-1.4c2.7-0.5,5.5-1.4,8.2-2.5c9.8-3.5,18.5-8.4,26.1-14.7
		c7.6-6.3,13.8-13.8,18.7-22.6c2.9-4.7,4.4-9.1,4.4-13.2c0-5.4-2.9-9.2-8.7-11.3c-5.8-2.1-13.4-3.2-22.7-3.2
		c-11.4,0-22.7,1.9-33.7,5.8c-11.1,3.9-21.1,9.5-30.2,16.8h0.2c-2.6,2.2-5.3,4.9-8.1,8c-2.8,3.2-5.3,6.4-7.5,9.7
		c-2.2,3.3-4,6.5-5.5,9.6c-1.5,3.1-2.2,5.6-2.2,7.7c0,2.3,1,4.7,2.9,7.1c1.9,2.4,4.8,5.3,8.6,8.7L260,896.9z"/>
	<path d="M404.3,898.6l-0.2,0.7c0.1-0.1,0.2-0.1,0.1,0.1c-0.1,0.2-0.2,0.5-0.3,0.8c0,0.4,0,0.7-0.1,0.8c-0.1,0.1-0.3,0.3-0.5,0.5
		c-0.4,0.9-1,1.9-1.8,3.2c-0.7,1.2-1.7,2.2-2.9,3c-2.5,1.6-4.9,3-7.2,4.2c-2.3,1.2-4.2,2.1-5.5,2.6c-3.4,1.2-6.5,2.6-9.4,4.3
		c-2.9,1.7-4.4,3.8-4.4,6.3c0,1,0.7,1.7,2,2c1.3,0.3,2.9,0.4,4.8,0.4c2.9,0,5.9-0.5,9-1.6c3.1-1.1,6.1-2.4,9.2-3.8l1.3-0.7
		c1-0.4,2.2-0.9,3.4-1.4c1.2-0.5,2.8-1,4.6-1.4c1.8-0.4,4.1-0.9,6.9-1.3c2.8-0.4,6.1-0.9,10.1-1.3c-8.1,6-15.7,11-23,15
		c-7.2,4-14.6,6-22.1,6c-5.4,0-9.8-1-13.3-2.9c-3.4-1.9-5.2-4.9-5.2-9c0-1,0.2-2.3,0.5-3.7c0.4-1.5,0.8-2.9,1.4-4.4
		c1.5-2.6,3.3-5.4,5.4-8.3c2.1-2.9,4.5-5.6,7.1-8c2.6-2.4,5.6-4.4,8.8-6c3.2-1.6,6.6-2.4,10.1-2.4h1.8c1.6-0.1,3.2,0,4.7,0.4
		c1.5,0.4,3.1,2.1,4.7,4.8L404.3,898.6z M395.7,899.7c-2.9,0-5.7,0.9-8.2,2.7c-2.6,1.8-4.4,4-5.4,6.5c3.5-1.2,6.5-2.5,8.9-4
		c2.4-1.5,4.9-3.1,7.4-4.8C397.2,899.9,396.3,899.7,395.7,899.7z"/>
	<path d="M402.5,933.1c0-1.5,0.5-3,1.5-4.7c1-1.7,2.3-3.4,3.8-5.1c1.5-1.7,3.3-3.3,5.3-4.9c2-1.6,3.9-3.1,5.8-4.6h-0.2l3.5-3.1
		c-1-4-1.5-7.5-1.5-10.5c0-4.8,1.4-8.6,4.2-11.3c2.8-2.7,7.1-5.5,13-8.2c2.3-0.9,4.4-1.6,6.3-2.1c1.8-0.5,3.7-0.8,5.6-0.8
		c2.9,0,5.5,0.9,7.7,2.6c2.2,1.8,4.1,4.6,5.7,8.6c-3.4,0.3-6.8,0.7-10.3,1.2c-3.5,0.5-6.8,1.2-9.8,2.1c-3,0.9-5.5,2-7.4,3.4
		c-1.9,1.4-2.9,3-2.9,4.9c0,1,0.5,2.8,1.5,5.3l36-4.6v7.2l-33.6,7.2c0.1,0.7,0.2,1.4,0.1,2.1c-0.1,0.7-0.1,1.4-0.1,2.1
		c0,2.8-0.6,5.5-1.8,8.2c-1.2,2.7-2.8,5.2-4.8,7.4c-2.1,2.2-4.6,4-7.6,5.3c-3,1.3-6.3,2-9.8,2c-3.7,0-6.3-0.9-7.9-2.6
		C403.3,938.4,402.5,936,402.5,933.1z M413.5,932.2c3.4,0,6.2-1.1,8.5-3.2c2.3-2.1,3.5-4.9,3.6-8.5c-2.5,1.6-4.8,3.3-6.9,5.2
		c-2.1,1.8-3.9,4-5.4,6.5H413.5z"/>
	<path d="M481.6,910.7c-1.6,2.5-3.1,5.2-4.5,8c-1.4,2.9-2.2,6.2-2.3,10c9.7-0.9,19-3.4,28-7.7c9-4.2,18.6-9.2,28.7-14.9
		c-1.8,3.8-5.2,7.6-10.3,11.4c-5.1,3.8-10.8,7.2-16.9,10.1c-6.1,2.9-12.3,5.3-18.6,7.1c-6.2,1.8-11.3,2.7-15.3,2.7
		c-2.6-1.5-4.6-3.1-5.8-5.1c-1.2-1.9-1.9-3.9-1.9-5.9c0-3.2,0.9-7,2.7-11.2c1.8-4.2,3.8-8.3,5.8-12.1l0.2-0.2
		c0.7-0.9,1.5-2.1,2.2-3.6c0.7-1.5,1.2-3,1.5-4.3l1.1-3.7l4.8,1.1l4.4,0.7c0.3,0.1,0.9,0.2,1.8,0.2c0.9,0,1.8,0,2.9,0
		c-0.7,3.1-1.9,6.1-3.6,9.1C484.9,905.5,483.2,908.2,481.6,910.7z M495.7,872.9c0,0.3,0,0.6,0.1,1c0.1,0.4,0.1,0.7,0.1,1
		c0.1,0.6,0.3,1.1,0.3,1.5c0.1,0.4,0.1,0.9,0.1,1.3c0,3.8-1,6.6-2.9,8.2c-1.9,1.7-4.3,2.5-7.2,2.5c-0.9,0-1.8,0-2.7-0.1
		c-1-0.1-2.8-0.5-5.6-1.2l7.2-8.1l7-7.2L495.7,872.9z"/>
	<path d="M549.2,894c2.2,0,4.5,0.4,7,1.3l1.1,0.4l0.9,0.4c6.9-10.2,13.8-20.1,20.6-29.4c6.9-9.4,13.8-18.2,20.9-26.4v0.2
		c0.7-1.2,1.3-1.9,1.8-2.2c0.4-0.3,1-0.6,1.8-0.9l1.1-0.4h-0.2l5.7-2l1.1,3.1c0.3,0.3,0.6,0.7,1,1.1c0.4,0.4,0.7,0.7,1,0.9
		l-9.7,13.4c-6.7,10-13.6,20.1-20.5,30.5c-7,10.4-13.7,20.6-20.1,30.7c-2.5,3.8-4.6,7.9-6.4,12.4c-1.8,4.5-2.6,9.4-2.6,14.8
		c0,1.3,0.1,2.1,0.2,2.4c0.1,0.3,0.5,0.6,1.1,0.9l4.6,2.9c-1.5,2.6-2.6,4.2-3.5,4.6c-0.9,0.4-1.9,0.7-3.1,0.7
		c-2.8,0-5.2-0.9-7.4-2.7c-2.1-1.8-3.2-4.6-3.2-8.2c0-3.4,0.4-6.7,1.1-10.1c0.7-3.4,1.5-6.7,2.4-9.9c0-0.3,0-0.4,0-0.3
		c0,0.1,0.1-0.2,0.2-0.8c-3.4,2.6-7.2,5.1-11.5,7.4c-4.3,2.3-8.6,3.4-12.8,3.4c-5,0-7.5-2.4-7.5-7.2c0-2,0.4-4,1.1-5.7
		c1.3-3.1,3.1-6.1,5.4-9.1c2.3-3,4.9-5.7,7.9-8.1c3-2.4,6.2-4.4,9.7-5.8C541.8,894.8,545.4,894,549.2,894z M551.4,905
		c-2.3,0.1-4.7,0.7-7,1.6c-2.3,1-4.5,2.2-6.5,3.7c-2,1.5-3.8,3.3-5.4,5.2c-1.6,1.9-2.8,3.8-3.5,5.7l14.9-10.5v-0.2
		c0.7-0.4,1.9-1.2,3.4-2.3C548.9,907.1,550.3,906,551.4,905z"/>
	<path d="M626.8,898.6l-0.2,0.7c0.1-0.1,0.2-0.1,0.1,0.1c-0.1,0.2-0.2,0.5-0.3,0.8c0,0.4,0,0.7-0.1,0.8c-0.1,0.1-0.3,0.3-0.5,0.5
		c-0.4,0.9-1,1.9-1.8,3.2c-0.7,1.2-1.7,2.2-2.9,3c-2.5,1.6-4.9,3-7.2,4.2c-2.3,1.2-4.2,2.1-5.5,2.6c-3.4,1.2-6.5,2.6-9.4,4.3
		c-2.9,1.7-4.4,3.8-4.4,6.3c0,1,0.7,1.7,2,2c1.3,0.3,2.9,0.4,4.8,0.4c2.9,0,5.9-0.5,9-1.6c3.1-1.1,6.1-2.4,9.2-3.8l1.3-0.7
		c1-0.4,2.2-0.9,3.4-1.4c1.2-0.5,2.8-1,4.6-1.4c1.8-0.4,4.1-0.9,6.9-1.3c2.8-0.4,6.2-0.9,10.1-1.3c-8.1,6-15.7,11-23,15
		c-7.2,4-14.6,6-22.1,6c-5.4,0-9.8-1-13.3-2.9s-5.2-4.9-5.2-9c0-1,0.2-2.3,0.5-3.7c0.4-1.5,0.8-2.9,1.4-4.4c1.5-2.6,3.3-5.4,5.4-8.3
		c2.1-2.9,4.5-5.6,7.1-8c2.6-2.4,5.6-4.4,8.8-6c3.2-1.6,6.6-2.4,10.1-2.4h1.8c1.6-0.1,3.2,0,4.7,0.4s3.1,2.1,4.7,4.8L626.8,898.6z
		 M618.2,899.7c-2.9,0-5.7,0.9-8.2,2.7c-2.6,1.8-4.4,4-5.4,6.5c3.5-1.2,6.5-2.5,8.9-4c2.4-1.5,4.9-3.1,7.4-4.8
		C619.7,899.9,618.8,899.7,618.2,899.7z"/>
	<path d="M652.7,914.9c0.3-0.1,0.7-0.5,1.3-1.1l0.7-0.7v0.2l5.3-3.3c1.9-1.3,3.9-2.7,6-4.2c2.1-1.5,4.2-2.8,6.3-4.1
		c2-1.2,3.9-2.4,5.6-3.4c1.7-1,3-1.8,4.1-2.4c1.9-1,4.2-1.6,7-1.8c0.1,0,0.2,0,0.2-0.1c0-0.1,0.1-0.1,0.2-0.1l5.3-0.7l4,4.1l-4,13.7
		l-2.4,7.2c1,1,1.8,1.7,2.4,2c0.6,0.3,1.4,0.4,2.4,0.4c2.5,0,5.5-0.5,9.1-1.4c3.6-1,7.1-2.1,10.7-3.4c3.5-1.3,6.8-2.6,9.8-4
		c3-1.3,5.2-2.3,6.5-3.1l4.2,4.6c-6.1,6.6-13,11.2-20.6,13.6c-7.6,2.5-15.2,3.7-22.6,3.7c-8.9,0-13.4-4.1-13.4-12.3
		c0-1.6,0.1-3,0.3-4.1c0.2-1.1,0.5-2.2,1-3.4c0.1-0.7,0.3-1.7,0.5-3c0.2-1.2,0.3-1.6,0.1-1L665.2,918l-28.6,17.1
		c-1.2,0-2.9-0.5-5.3-1.5c-0.6,0-1-0.1-1.2-0.2c-0.2-0.1-0.5-0.3-0.8-0.4l-3.1-1.1l6.4-8.8c3.1-4.2,6.3-8.7,9.7-13.4
		c3.4-4.7,6.5-8.9,9.4-12.5c0.3,0,0.9-0.2,1.8-0.7l1.8-0.7l4.4-0.4l1.3,3.1v-0.2l1.3,2L652.7,914.9z M651.6,896.9l-0.4,1.1
		C651.1,897.5,651.3,897.2,651.6,896.9z"/>
	<path d="M797.9,910.7c0,0.3,0,0.6-0.1,0.9c-0.1,0.3-0.1,0.6-0.1,0.9c0,0.9-0.1,1.6-0.2,2.1c-0.1,0.5-0.6,1.1-1.3,1.9h0.2
		c-8.6,7.9-17.8,13.9-27.3,17.9c-9.6,4-20.4,6-32.4,6c-4.2,0-7.2-1-9-3s-2.6-5-2.6-9.1c0-3.5,0.9-7.3,2.7-11.4
		c1.8-4.1,4.2-7.9,7.2-11.4c3-3.5,6.3-6.4,9.9-8.8c3.6-2.3,7.1-3.5,10.7-3.5h1.1c2,0,4.1,0.2,6.1,0.7c2,0.4,3.7,2,4.8,4.6l-5.1,12.3
		c-2.6-0.9-4.4-2-5.2-3.4c-0.8-1.4-1.2-2.8-1.2-4.3c-2.3,1-4.6,2.5-6.7,4.5c-2.1,2-4,4.2-5.7,6.8c-1.7,2.6-3.1,5.3-4.2,8.1
		c-1.1,2.9-1.7,5.6-1.9,8.2c5.9-0.7,11.2-1.6,16.1-2.5c4.9-1,9.6-2.2,14.1-3.7c4.5-1.5,8.8-3.6,13.1-6.1c4.2-2.6,8.8-5.8,13.6-9.8
		L797.9,910.7z"/>
	<path d="M828.8,898.6l-0.2,0.7c0.1-0.1,0.2-0.1,0.1,0.1c-0.1,0.2-0.2,0.5-0.3,0.8c0,0.4,0,0.7-0.1,0.8c-0.1,0.1-0.3,0.3-0.5,0.5
		c-0.4,0.9-1,1.9-1.8,3.2c-0.7,1.2-1.7,2.2-2.9,3c-2.5,1.6-4.9,3-7.2,4.2c-2.3,1.2-4.2,2.1-5.5,2.6c-3.4,1.2-6.5,2.6-9.4,4.3
		c-2.9,1.7-4.4,3.8-4.4,6.3c0,1,0.7,1.7,2,2c1.3,0.3,2.9,0.4,4.8,0.4c2.9,0,5.9-0.5,9-1.6c3.1-1.1,6.1-2.4,9.2-3.8l1.3-0.7
		c1-0.4,2.2-0.9,3.4-1.4c1.2-0.5,2.8-1,4.6-1.4c1.8-0.4,4.1-0.9,6.9-1.3c2.8-0.4,6.2-0.9,10.1-1.3c-8.1,6-15.7,11-23,15
		c-7.2,4-14.6,6-22.1,6c-5.4,0-9.8-1-13.3-2.9s-5.2-4.9-5.2-9c0-1,0.2-2.3,0.5-3.7c0.4-1.5,0.8-2.9,1.4-4.4c1.5-2.6,3.3-5.4,5.4-8.3
		c2.1-2.9,4.5-5.6,7.1-8c2.6-2.4,5.6-4.4,8.8-6c3.2-1.6,6.6-2.4,10.1-2.4h1.8c1.6-0.1,3.2,0,4.7,0.4s3.1,2.1,4.7,4.8L828.8,898.6z
		 M820.3,899.7c-2.9,0-5.7,0.9-8.2,2.7c-2.6,1.8-4.4,4-5.4,6.5c3.5-1.2,6.5-2.5,8.9-4c2.4-1.5,4.9-3.1,7.4-4.8
		C821.7,899.9,820.8,899.7,820.3,899.7z"/>
</g>
</svg>
