<?xml version="1.0" encoding="utf-8"?>
<!-- Generator: Adobe Illustrator 26.3.1, SVG Export Plug-In . SVG Version: 6.00 Build 0)  -->
<svg version="1.1" id="Layer_1" xmlns="http://www.w3.org/2000/svg" xmlns:xlink="http://www.w3.org/1999/xlink" x="0px" y="0px"
	 viewBox="0 0 800 200" style="enable-background:new 0 0 800 200;" xml:space="preserve">
<style type="text/css">
	.st0{fill:#969696;}
</style>
<g>
	<path class="st0" d="M113.7,96.6l-11.1-33.1c-2.4-7.2,3-14.7,10.6-14.7h37.4c7.4,0,11.3,8.9,6.2,14.3l-33.6,35.6
		C120.3,101.8,115.1,100.6,113.7,96.6L113.7,96.6L113.7,96.6z"/>
	<path class="st0" d="M99,90.1l-36.9,0.2c-5.2-0.9-8-6.6-5.5-11.3l25.4-27.2c0.3-0.3,0.8-0.9,1.1-1.2c3.2-3.1,7.2-2.5,8.5,1.4
		l11.3,33.5c0.8,2.4-1.2,4.8-3.7,4.5C99.1,90.1,99.1,90.1,99,90.1z"/>
	<path class="st0" d="M135.5,115.2l36.9-0.2c5.2,0.9,8,6.6,5.5,11.3l-25.4,27.2c-0.3,0.3-0.8,0.9-1.1,1.2c-3.2,3.1-7.2,2.5-8.5-1.4
		l-11.3-33.5c-0.8-2.4,1.2-4.8,3.7-4.5C135.4,115.2,135.4,115.2,135.5,115.2L135.5,115.2z"/>
	<path class="st0" d="M120.7,108.3l11.1,33.1c2.4,7.2-3,14.7-10.6,14.7H83.7c-7.4,0-11.3-8.9-6.2-14.3l33.6-35.6
		C114.1,103.1,119.3,104.2,120.7,108.3L120.7,108.3z"/>
</g>
<g>
	<path class="st0" d="M288.5,130.3h-75.7v-6.5l38.1-23.9c8.9-5.2,20.9-10.9,27.1-13.9h-64.2v-6.5h74.7v6.5l-35.9,22.8
		c-11.4,6.9-22.5,12-28.7,15h64.6V130.3z"/>
	<path class="st0" d="M301.1,79.3h8.7V106c0,11.3,6.5,17.9,24,17.9c8.9,0,21.6-2.8,34.7-7.6v-37h8.7v51h-7.6l-0.8-7.9
		c-11.2,4.8-24.6,9-37.7,9c-18.7,0-30.1-7-30.1-24.6V79.3z"/>
	<path class="st0" d="M401.5,130.3h-8.7V53.5h8.7V130.3z"/>
	<path class="st0" d="M417.4,53.5h8.7v33.6c10.9-4.7,24.8-8.9,38.7-8.9c20.4,0,30.5,8.5,30.5,26c0,19-14.2,26.1-36.1,26.1h-41.7
		V53.5z M426.1,94.3V123h32.7c17.2,0,27.7-4.9,27.7-18.7c0-13.2-7.2-18.8-22.5-18.8C450.9,85.5,438.1,89.7,426.1,94.3z"/>
	<path class="st0" d="M581.7,120.7l1.7,6.8c-8.2,2.1-22,4-35.1,4c-27.3,0-41.3-6.7-41.3-26.6c0-19.5,14.9-26.6,39.6-26.6
		c22.6,0,39,5.8,39,24.4c0,1.5-0.2,3.8-0.4,4.7h-69.7c1.2,13.7,12.2,17,33.5,17C563.6,124.2,576.8,121.8,581.7,120.7z M515.5,101.9
		h61.6c-0.8-11.6-8.1-17.4-30.8-17.4C526.8,84.5,516.7,88.8,515.5,101.9z"/>
	<path class="st0" d="M599.4,79.3h7.5l0.9,10.9c10.4-6.4,23.5-12.1,39.1-12.1v7.9c-12.9,0-24.8,2.8-38.8,10.2v34h-8.7V79.3z"/>
	<path class="st0" d="M730.4,130.3h-7.6l-0.9-9.4c-11.2,5.4-25,10.4-39.2,10.4c-19.6,0-30.2-8.1-30.2-26.3
		c0-20.1,15.5-26.7,38.2-26.7c14.9,0,29.3,1.8,39.7,3.7V130.3z M684.3,123.9c13.1,0,25.6-4.2,37.5-9.1V88c-9.1-1.3-21.3-2.5-32-2.5
		c-17.6,0-28.4,5.1-28.4,19.2C661.3,118.4,668.4,123.9,684.3,123.9z"/>
</g>
</svg>
