<svg xmlns="http://www.w3.org/2000/svg" viewBox="0 0 1080 1080"><rect width="1080" height="1080" rx="232" fill="#1A1208"/><g fill="#C8956C" transform="translate(540 540) scale(1.18) translate(-529 -359.5)"><path d="M739.9,578.4c0-25.9,0-100.2,0-124.7c0-14.4,0.2-28.7-0.2-43c-0.1-2.5-1.4-6.2-3.4-7.4c-30.5-18.6-61.2-37-93.2-56.3c0,60.7,0,120,0,180.3c-13.9-3.6-26.5-6.7-39-10.3c-1.8-0.6-3.8-4.3-3.8-6.6c-0.2-43.9-0.2-87.9-0.2-131.8c-0.1-41.6-0.2-83.1-0.2-124.7c0-32,0.2-64,0.2-95.9c0-2.2-1.3-5.3-3.1-6.5c-5-3.6-10.5-6.5-17.4-10.6c0,125.7,0,249.4,0,373.8c-12.9-0.6-25.4-0.8-37.7-2.1c-1.7-0.2-4.2-5-4.2-7.7c-0.3-26.9-0.3-53.8-0.3-80.7c0-36.5,0.2-72.9,0.2-109.4c0.1-47.6,0-95.1,0-142.6c0-30.8-0.2-61.6-0.3-92.4c0-2.9,0-5.8,0-10.3c4.2,2.1,7.1,3.3,9.8,4.9c48.5,28.4,96.8,56.9,145.5,85.1c7.4,4.3,9.9,9.1,9.9,17.7c-0.5,44.3-0.2,88.5-0.2,132.7c0,1.4-0.2,2.9-0.4,6.4c-14-8.5-26.9-16.2-39.5-24.4c-1.8-1.1-2.3-5.2-2.3-7.9c-0.2-26.6-0.8-53.2,0.2-79.8c0.5-12.9-4-20.1-17.3-23.8c0,15.7,0,31.1,0,46.5c0,21.5,0.2,43-0.2,64.6c-0.2,7.1,2,11.2,8.3,14.8c41.2,23.6,82.2,47.6,123.4,71.3c5.6,3.2,7.9,6.7,7.9,13.3c-0.2,38.9-0.1,212.2,0.4,251.1"/><path d="M274.4,648.9c0-5.8,0-11.7,0-17.6c0.2-92.4,1.1-184.8-0.2-277.1c-0.2-20.4,5.7-31.3,23.2-41.1c31-17.2,60.5-37.2,90.4-56.6c3-1.9,5.2-7.1,5.3-10.8c0.2-30.5,0.2-61-0.3-91.5c-0.2-7.4,1.9-11.7,8.5-15.7c36.4-21.2,72.4-43,108.6-64.6c2.5-1.5,5-2.7,8.5-4.6c0,148.3,0,295.5,0,443.7c-14,0-27.3,0-41.2,0c0-64.6,0-129.3,0-196.6c-14.6,9.7-27.7,18.1-40.4,27.1c-1.6,1.1-1.3,5.5-1.3,8.4c-0.1,51.7-0.2,103.4,0.2,155.2c0,7.1-1.2,10.6-9.2,11.8c-10.8,1.6-21.4,5.3-33.4,8.5c0-3.9,0-7.1,0-10.3c0.1-61.9,0.3-123.8,0.2-185.6c0-7.6,2.5-11.8,8.8-15.7c23.9-14.7,47.6-29.7,71.2-44.9c2.1-1.3,4.3-4.5,4.3-6.8c0-39.8-0.4-79.5-0.7-119.3c0-0.5-0.5-1-1.2-2.3c-12.5,7.6-25,14.9-37.2,22.8c-1.6,1-2.4,4.1-2.4,6.2c-0.2,17-0.1,34.1-0.1,53.1c8.6-5.5,16.3-10.4,25.5-16.3c0,17,0.2,32.6-0.2,48.2c-0.1,1.8-3.3,3.9-5.4,5.3c-44.1,28.1-88.2,56.2-132.5,83.9c-5,3.1-6.7,6.5-6.7,12.2c0.2,70.6-0.1,141.1,0.2,211.7c0,8.5-2.3,15.1-7,22.2C297.5,610.1,286.4,629.3,274.4,648.9z"/><path d="M333.6,560.6c0-16.5,0-31.5,0-46.3c0-49.3-0.2-98.5,0.2-147.8c0-3.7,2.5-8.7,5.4-10.7c11.4-8,23.5-14.9,37-23.2c0,20,0,38.4,0,56.7c0,47.1,0.2,94.3-0.1,141.4c0,2.6-2.1,6.3-4.4,7.6C359.9,545.7,347.6,552.5,333.6,560.6z"/><path d="M702.3,548.4c-2,0-30.8,5.2-41.4-17.2c-1.5-3-1.3-7-1.3-10.5c-0.1-50.2-0.1-82.4-0.1-132.6c0-2.9,0.2-5.7,0.4-10.7c14.2,8.4,27.3,15.9,40.1,23.9c1.6,1,2.1,4.7,2.1,7.1c0.2,40.9,0.1,81.8,0.2,122.8"/></g></svg>